<?xml version="1.0" standalone="no"?>
<!DOCTYPE svg PUBLIC "-//W3C//DTD SVG 1.1//EN" "http://www.w3.org/Graphics/SVG/1.1/DTD/svg11.dtd" >
<svg xmlns="http://www.w3.org/2000/svg">
<metadata></metadata>
<defs>
<font id="amarillousafregular" horiz-adv-x="1024" >
<font-face units-per-em="2048" ascent="1638" descent="-410" />
<missing-glyph horiz-adv-x="614" />
<glyph horiz-adv-x="2048" />
<glyph horiz-adv-x="2048" />
<glyph unicode="&#xd;" horiz-adv-x="614" />
<glyph unicode=" "  horiz-adv-x="614" />
<glyph unicode="&#x09;" horiz-adv-x="614" />
<glyph unicode="&#xa0;" horiz-adv-x="614" />
<glyph unicode="-" horiz-adv-x="614" d="M102 512v205h410v-205h-410z" />
<glyph unicode="." horiz-adv-x="614" d="M102 0v205h205v-205h-205z" />
<glyph unicode="0" d="M102 205v819l205 205h410l205 -205v-819l-213 -205h-402zM307 289l84 -84h242l84 84v651l-84 84h-242l-84 -84v-651z" />
<glyph unicode="1" horiz-adv-x="409" d="M102 0v1229h205v-1229h-205z" />
<glyph unicode="2" d="M102 0v512l205 205h326l84 84v139l-84 84h-242l-84 -84v-18h-205v102l205 205h410l205 -205v-307l-205 -205h-326l-84 -84v-223h615v-205h-820z" />
<glyph unicode="3" d="M102 205v102h205v-18l84 -84h242l84 84v139l-84 84h-223v205h223l84 84v139l-84 84h-242l-84 -84v-18h-205v102l205 205h410l205 -205v-307l-103 -103l103 -102v-307l-205 -205h-402z" />
<glyph unicode="4" d="M102 307v205l512 717h205v-717h103v-205h-103v-307h-205v307h-512zM356 512h258v356z" />
<glyph unicode="5" d="M102 205v102h205v-18l84 -84h242l84 84v139l-84 84h-326l-205 205v512h820v-205h-615v-223l84 -84h326l205 -205v-307l-205 -205h-410z" />
<glyph unicode="6" d="M102 205v819l205 205h410l205 -205v-102h-205v18l-84 84h-242l-84 -84v-223h402l213 -205v-307l-205 -205h-410zM307 289l84 -84h242l84 84v139l-84 84h-326v-223z" />
<glyph unicode="7" d="M102 0l564 989l-33 35h-531v205h615l205 -205l-584 -1024h-236z" />
<glyph unicode="8" d="M102 205v307l103 102l-103 103v307l205 205h410l205 -205v-307l-103 -103l103 -102v-307l-205 -205h-410zM307 289l84 -84h242l84 84v139l-84 84h-242l-84 -84v-139zM307 801l84 -84h242l84 84v139l-84 84h-242l-84 -84v-139z" />
<glyph unicode="9" d="M102 205v102h205v-18l84 -84h242l84 84v223h-402l-213 205v307l205 205h410l205 -205v-819l-205 -205h-410zM307 801l84 -84h326v223l-84 84h-242l-84 -84v-139z" />
<glyph unicode="A" d="M102 0l297 1229h222l297 -1229h-211l-52 205h-290l-52 -205h-211zM416 410h188l-94 378z" />
<glyph unicode="B" d="M102 0v1229h615l205 -205v-307l-103 -103l103 -102v-307l-205 -205h-615zM307 205h326l84 84v139l-84 84h-326v-307zM307 717h326l84 84v139l-84 84h-326v-307z" />
<glyph unicode="C" d="M102 205v819l205 205h410l205 -205v-102h-205v18l-84 84h-242l-84 -84v-651l84 -84h242l84 84v18h205v-102l-213 -205h-402zM717 922zM922 307zM922 922z" />
<glyph unicode="D" d="M102 0v1229h615l205 -205v-819l-205 -205h-615zM307 205h326l84 84v651l-84 84h-326v-819z" />
<glyph unicode="E" d="M102 0v1229h820v-205h-615v-307h307v-205h-307v-307h615v-205h-820z" />
<glyph unicode="F" d="M102 0v1229h820v-205h-615v-307h307v-205h-307v-512h-205z" />
<glyph unicode="G" d="M102 205v819l205 205h410l205 -205v-102h-205v18l-84 84h-242l-84 -84v-651l84 -84h242l84 84v121h-103v204h308v-409l-213 -205h-402zM717 922zM922 922z" />
<glyph unicode="H" d="M102 0v1229h205v-512h410v512h205v-1229h-205v512h-410v-512h-205z" />
<glyph unicode="I" horiz-adv-x="409" d="M102 0v1229h205v-1229h-205z" />
<glyph unicode="J" d="M102 205v102h205v-18l84 -84h242l84 84v940h205v-1024l-205 -205h-410z" />
<glyph unicode="K" d="M102 0v1229h205v-475l359 475h256l-394 -520l394 -709h-234l-295 528l-86 -114v-414h-205z" />
<glyph unicode="L" d="M102 0v1229h205v-1024h615v-205h-820z" />
<glyph unicode="M" horiz-adv-x="1433" d="M102 0v1229h205l410 -965l409 965h205v-1229h-205v705l-299 -705h-223l-297 705v-705h-205z" />
<glyph unicode="N" d="M102 0v1229l205 -2l410 -783v785h205v-1229h-205l-410 782v-782h-205z" />
<glyph unicode="O" d="M102 205v819l205 205h410l205 -205v-819l-213 -205h-402zM307 289l84 -84h242l84 84v651l-84 84h-242l-84 -84v-651z" />
<glyph unicode="P" d="M102 0v1229h615l205 -205v-307l-213 -205h-402v-512h-205zM307 717h326l84 84v139l-84 84h-326v-307z" />
<glyph unicode="Q" d="M102 205v819l205 205h410l205 -205v-819l-156 -152l160 -159l-146 -144l-250 250h-223zM307 289l84 -84h19l102 102l102 -102h19l84 84v651l-84 84h-242l-84 -84v-651z" />
<glyph unicode="R" d="M102 0v1229h615l205 -205v-307l-213 -205l213 -512h-224l-217 512h-174v-512h-205zM307 717h326l84 84v139l-84 84h-326v-307z" />
<glyph unicode="S" d="M102 205v102h205v-18l84 -84h242l84 84v139l-84 84h-326l-205 205v307l205 205h410l205 -205v-102h-205v18l-84 84h-242l-84 -84v-139l84 -84h326l205 -205v-307l-205 -205h-410z" />
<glyph unicode="T" d="M102 1024v205h820v-205h-308v-1024h-204v1024h-308z" />
<glyph unicode="U" d="M102 205v1024h205v-940l84 -84h242l84 84v940h205v-1024l-205 -205h-410z" />
<glyph unicode="V" d="M102 1229h211l197 -789l197 789h211l-297 -1229h-222z" />
<glyph unicode="W" horiz-adv-x="1433" d="M111 1229h206l113 -711l178 711h217l179 -711l112 711h207l-195 -1229h-206l-205 821l-205 -821h-207z" />
<glyph unicode="X" d="M102 0l297 637l-276 592h225l164 -350l164 350h225l-276 -592l297 -637h-226l-184 393l-184 -393h-226z" />
<glyph unicode="Y" d="M123 1229h225l164 -350l164 350h225l-287 -615v-614h-204v614z" />
<glyph unicode="Z" d="M102 205l555 794l-24 25h-531v205h615l205 -205l-555 -795l24 -24h531v-205h-615z" />
<glyph unicode="a" d="M102 0l297 1229h222l297 -1229h-211l-52 205h-290l-52 -205h-211zM416 410h188l-94 378z" />
<glyph unicode="b" d="M102 0v1229h615l205 -205v-307l-103 -103l103 -102v-307l-205 -205h-615zM307 205h326l84 84v139l-84 84h-326v-307zM307 717h326l84 84v139l-84 84h-326v-307z" />
<glyph unicode="c" d="M102 205v819l205 205h410l205 -205v-102h-205v18l-84 84h-242l-84 -84v-651l84 -84h242l84 84v18h205v-102l-213 -205h-402zM717 922zM922 307zM922 922z" />
<glyph unicode="d" d="M102 0v1229h615l205 -205v-819l-205 -205h-615zM307 205h326l84 84v651l-84 84h-326v-819z" />
<glyph unicode="e" d="M102 0v1229h820v-205h-615v-307h307v-205h-307v-307h615v-205h-820z" />
<glyph unicode="f" d="M102 0v1229h820v-205h-615v-307h307v-205h-307v-512h-205z" />
<glyph unicode="g" d="M102 205v819l205 205h410l205 -205v-102h-205v18l-84 84h-242l-84 -84v-651l84 -84h242l84 84v121h-103v204h308v-409l-213 -205h-402zM717 922zM922 922z" />
<glyph unicode="h" d="M102 0v1229h205v-512h410v512h205v-1229h-205v512h-410v-512h-205z" />
<glyph unicode="i" horiz-adv-x="409" d="M102 0v1229h205v-1229h-205z" />
<glyph unicode="j" d="M102 205v102h205v-18l84 -84h242l84 84v940h205v-1024l-205 -205h-410z" />
<glyph unicode="k" d="M102 0v1229h205v-475l359 475h256l-394 -520l394 -709h-234l-295 528l-86 -114v-414h-205z" />
<glyph unicode="l" d="M102 0v1229h205v-1024h615v-205h-820z" />
<glyph unicode="m" horiz-adv-x="1433" d="M102 0v1229h205l410 -965l409 965h205v-1229h-205v705l-299 -705h-223l-297 705v-705h-205z" />
<glyph unicode="n" d="M102 0v1229l205 -2l410 -783v785h205v-1229h-205l-410 782v-782h-205z" />
<glyph unicode="o" d="M102 205v819l205 205h410l205 -205v-819l-213 -205h-402zM307 289l84 -84h242l84 84v651l-84 84h-242l-84 -84v-651z" />
<glyph unicode="p" d="M102 0v1229h615l205 -205v-307l-213 -205h-402v-512h-205zM307 717h326l84 84v139l-84 84h-326v-307z" />
<glyph unicode="q" d="M102 205v819l205 205h410l205 -205v-819l-156 -152l160 -159l-146 -144l-250 250h-223zM307 289l84 -84h19l102 102l102 -102h19l84 84v651l-84 84h-242l-84 -84v-651z" />
<glyph unicode="r" d="M102 0v1229h615l205 -205v-307l-213 -205l213 -512h-224l-217 512h-174v-512h-205zM307 717h326l84 84v139l-84 84h-326v-307z" />
<glyph unicode="s" d="M102 205v102h205v-18l84 -84h242l84 84v139l-84 84h-326l-205 205v307l205 205h410l205 -205v-102h-205v18l-84 84h-242l-84 -84v-139l84 -84h326l205 -205v-307l-205 -205h-410z" />
<glyph unicode="t" d="M102 1024v205h820v-205h-308v-1024h-204v1024h-308z" />
<glyph unicode="u" d="M102 205v1024h205v-940l84 -84h242l84 84v940h205v-1024l-205 -205h-410z" />
<glyph unicode="v" d="M102 1229h211l197 -789l197 789h211l-297 -1229h-222z" />
<glyph unicode="w" horiz-adv-x="1433" d="M111 1229h206l113 -711l178 711h217l179 -711l112 711h207l-195 -1229h-206l-205 821l-205 -821h-207z" />
<glyph unicode="x" d="M102 0l297 637l-276 592h225l164 -350l164 350h225l-276 -592l297 -637h-226l-184 393l-184 -393h-226z" />
<glyph unicode="y" d="M123 1229h225l164 -350l164 350h225l-287 -615v-614h-204v614z" />
<glyph unicode="z" d="M102 205l555 794l-24 25h-531v205h615l205 -205l-555 -795l24 -24h531v-205h-615z" />
<glyph unicode="&#xad;" horiz-adv-x="614" d="M102 512v205h410v-205h-410z" />
<glyph unicode="&#x2000;" horiz-adv-x="682" />
<glyph unicode="&#x2001;" horiz-adv-x="1365" />
<glyph unicode="&#x2002;" horiz-adv-x="682" />
<glyph unicode="&#x2003;" horiz-adv-x="1365" />
<glyph unicode="&#x2004;" horiz-adv-x="455" />
<glyph unicode="&#x2005;" horiz-adv-x="341" />
<glyph unicode="&#x2006;" horiz-adv-x="227" />
<glyph unicode="&#x2007;" horiz-adv-x="227" />
<glyph unicode="&#x2008;" horiz-adv-x="170" />
<glyph unicode="&#x2009;" horiz-adv-x="273" />
<glyph unicode="&#x200a;" horiz-adv-x="75" />
<glyph unicode="&#x2010;" horiz-adv-x="614" d="M102 512v205h410v-205h-410z" />
<glyph unicode="&#x2011;" horiz-adv-x="614" d="M102 512v205h410v-205h-410z" />
<glyph unicode="&#x2012;" horiz-adv-x="614" d="M102 512v205h410v-205h-410z" />
<glyph unicode="&#x2013;" horiz-adv-x="409" d="M102 512v205h205v-205h-205z" />
<glyph unicode="&#x2014;" horiz-adv-x="819" d="M102 512v205h615v-205h-615z" />
<glyph unicode="&#x202f;" horiz-adv-x="273" />
<glyph unicode="&#x205f;" horiz-adv-x="341" />
<glyph unicode="&#x25fc;" horiz-adv-x="1228" d="M0 0v1229h1229v-1229h-1229z" />
</font>
</defs>
</svg>
