<svg width="603" height="697" viewBox="0 0 603 697" xmlns="http://www.w3.org/2000/svg"><path d="M301.578 696.648l-301.731-174.204v-348.41l301.731-174.204 301.731 174.204v348.408l-301.731 174.205" fill="#333"/><path d="M301.578 32.955l-195.073 112.625 230 182.495 24.355 301.221 213.761-123.415v-315.284l-273.044-157.641" fill="#555"/><path d="M123.704 245.543l177.875 308.089 177.875-308.089h-355.75zm162.093 217.625l-91.64-158.725 91.64 52.908v105.817zm-75.858-186.061h183.28l-91.639 52.909-91.641-52.909zm107.422 80.243l91.641-52.909-91.641 158.726v-105.817zM301.579 65.704l-244.683 141.268v282.535l244.683 141.268 244.683-141.268v-282.535l-244.683-141.268zm130.232 339.502l-15.782 27.336 82.886 47.855-197.336 113.932-197.336-113.932 82.886-47.855-15.782-27.336-82.886 47.855v-227.865l197.336-113.932v95.709h31.564v-95.709l197.337 113.933v227.865l-82.886-47.855z" fill="#fff"/></svg>